<?xml version="1.0" encoding="UTF-8"?>
<svg id="Layer_2" data-name="Layer 2" xmlns="http://www.w3.org/2000/svg" viewBox="0 0 88.87 131.3">
  <defs>
    <style>
      .cls-1 {
        fill: #bd9d6a;
      }

      .cls-1, .cls-2, .cls-3, .cls-4, .cls-5, .cls-6 {
        stroke: #231f20;
        stroke-miterlimit: 10;
      }

      .cls-2 {
        fill: #b08217;
      }

      .cls-3 {
        fill: #d88319;
      }

      .cls-4 {
        fill: #fff;
      }

      .cls-5 {
        fill: #c2841c;
      }

      .cls-6 {
        fill: #c39a36;
      }
    </style>
  </defs>
  <g id="Layer_1-2" data-name="Layer 1">
    <path class="cls-5" d="M19.87,10.1c-.45.53-1.94-.79-5.05-1.52-7.66-1.77-13.13,2.9-14.14,1.52C-.4,8.63,3.57.46,10.27.5c6.81.04,10.51,8.51,9.6,9.6Z"/>
    <path class="cls-3" d="M86.28,84.84s-11.18-5.66-11.87-11.87c-.67-6.05,8.53-13.51,11.87-11.87,4.7,2.31,0,23.73,0,23.74Z"/>
    <path class="cls-1" d="M13.3,92.42s6.05-4.87,6.57-9.72c.53-4.95-4.67-10.4-6.57-9.72-3.1,1.1,0,19.44,0,19.44Z"/>
    <ellipse class="cls-6" cx="77.88" cy="122.72" rx="3.5" ry="8.08"/>
    <circle class="cls-2" cx="23.47" cy="118.11" r="3.47"/>
    <ellipse class="cls-4" cx="58.25" cy="36.36" rx="5.05" ry=".51"/>
  </g>
</svg>