<?xml version="1.0" encoding="UTF-8"?>
<svg id="Layer_2" data-name="Layer 2" xmlns="http://www.w3.org/2000/svg" viewBox="0 0 229.45 181.6">
  <defs>
    <style>
      .cls-1 {
        fill: #895908;
      }

      .cls-1, .cls-2, .cls-3, .cls-4, .cls-5, .cls-6 {
        stroke: #231f20;
        stroke-miterlimit: 10;
      }

      .cls-2 {
        fill: #e9e7c1;
      }

      .cls-3 {
        fill: #ad862e;
      }

      .cls-4 {
        fill: #674200;
      }

      .cls-5 {
        fill: #e5b422;
      }

      .cls-6 {
        fill: #724200;
      }
    </style>
  </defs>
  <g id="Layer_1-2" data-name="Layer 1">
    <path class="cls-5" d="M216.66,18.91c-5.04.68-11.21-1.63-14.42-5.97-3.26,5.17-9.68,7.75-15.5,7-2.21,1.19-4.75,1.91-7.43,2.27-8.28,1.1-16.25-1.4-23.47-5.3-2.31-1.25-4.55-2.61-6.86-3.85.12.1-1.63-.71-2.39-.93-1.52-.45-3.08-.79-4.64-1.09-5.39-1.04-13.95-1.11-21.23-1.96-1.06-.14-2.11-.28-3.17-.43,1.35.19,1.28.23-.21.13-1.2.11-2.48.1-3.69.13-.53.06-.88.09-1.08.11-.52.08-1.05.16-1.57.26-1.39.24-2.78.52-4.16.79-13.51,2.7-28.72,6.94-41.37-.9-1.66-1.03-3.16-2.18-4.57-3.41-4.62,1.21-9.65.24-13.4-4.11-.33-.39-.64-.77-.94-1.15-.97.01-1.94.02-2.91.03-3.9,2.5-8.61,3.3-13.22,1.47C16.48,16.55-.23,39.31.52,68.82c.75,29.31,18.33,49.57,31.89,65.2,16.18,18.64,43.03,49.58,80.23,46.92,34.38-2.46,64.32-32.66,73.74-57.58,1.95-5.16,3.66-11.81,9.09-21.21,11.77-20.4,23.07-22.73,29.29-33.33,7.54-12.85,4.28-32.2-4.89-50.73-1.03.38-2.1.67-3.22.82Z"/>
    <path class="cls-6" d="M54.57,69.58c1.9,10.09-10.96,21.48-16.67,19.44-4.49-1.6-5.9-11.99-3.03-19.44.54-1.39,3.77-9.77,9.85-9.85,4.88-.06,8.98,5.26,9.85,9.85Z"/>
    <ellipse class="cls-3" cx="111.13" cy="130.94" rx="10.61" ry="16.67"/>
    <path class="cls-2" d="M106.83,10.07c-11.28,2.25-23.75,5.58-34.92,2.05,3.14,4.83,10.36,8.22,18.77,8.22,9.95,0,18.23-4.74,20.07-11.01-1.31.23-2.61.48-3.91.74Z"/>
    <ellipse class="cls-4" cx="103.05" cy="78.98" rx="18.69" ry="10.28"/>
    <ellipse class="cls-1" cx="153.05" cy="45.59" rx="18.18" ry="20.2"/>
  </g>
</svg>