<?xml version="1.0" encoding="UTF-8"?>
<svg id="Layer_2" data-name="Layer 2" xmlns="http://www.w3.org/2000/svg" viewBox="0 0 203.16 155.26">
  <defs>
    <style>
      .cls-1 {
        fill: #ad862e;
      }

      .cls-1, .cls-2, .cls-3, .cls-4 {
        stroke: #231f20;
        stroke-miterlimit: 10;
      }

      .cls-2 {
        fill: #674200;
      }

      .cls-3 {
        fill: #e5b422;
      }

      .cls-4 {
        fill: #724200;
      }
    </style>
  </defs>
  <g id="Layer_1-2" data-name="Layer 1">
    <path class="cls-3" d="M199.3,63.31c-.13-.08-.26-.16-.4-.23-.99-.54-2-1.04-3.02-1.52-.32-.13-1.19-.5-1.37-.57-2.11-.78-4.22-1.58-6.33-2.36-4.24-1.58-8.48-3.16-12.69-4.82-9.04-3.55-18.03-7.33-26.59-11.92-9.1-4.87-17.54-10.73-25.66-17.08-2.16-1.69-4.29-3.41-6.45-5.11-.69-.55-1.38-1.09-2.08-1.63-.3-.22-1.03-.78-1.12-.85-3.48-2.55-7-5.03-10.76-7.15-.94-.53-1.91-1.02-2.87-1.52-4.59.79-9.17.98-14.25-.52-3.29-.97-6.4-2.24-9.29-3.9-7.79-.29-15.66-.42-23.34-1.73-2.23-.38-4.43-.97-6.65-1.4-.64-.13-1.27-.24-1.91-.35,0,0-.02,0-.03,0-.2-.02-.39-.04-.52-.04-.74,0-4.87.22-3.29-.11-1.9.36-3.54.94-3.93,1.12-7.04,3.28-11.62,9.84-16.23,17.13-4.34,6.86-12.09,8.25-18.35,5.97-1.21,5.62-1.83,11.54-1.67,17.77.75,29.31,18.33,49.57,31.89,65.2,16.18,18.64,43.03,49.58,80.23,46.92,34.38-2.46,64.32-32.66,73.74-57.58,1.95-5.16,3.66-11.81,9.09-21.21,2.34-4.05,4.66-7.38,6.92-10.22-1.12-.62-2.16-1.39-3.09-2.29Z"/>
    <path class="cls-4" d="M54.56,43.24c1.9,10.09-10.96,21.48-16.67,19.44-4.49-1.6-5.9-11.99-3.03-19.44.54-1.39,3.77-9.77,9.85-9.85,4.88-.06,8.98,5.26,9.85,9.85Z"/>
    <ellipse class="cls-1" cx="111.13" cy="104.6" rx="10.61" ry="16.67"/>
    <ellipse class="cls-2" cx="103.05" cy="52.64" rx="18.69" ry="10.28"/>
  </g>
</svg>