<?xml version="1.0" encoding="UTF-8"?>
<svg id="Layer_2" data-name="Layer 2" xmlns="http://www.w3.org/2000/svg" viewBox="0 0 229.46 225.81">
  <defs>
    <style>
      .cls-1 {
        fill: #895908;
      }

      .cls-1, .cls-2, .cls-3, .cls-4, .cls-5, .cls-6, .cls-7 {
        stroke: #231f20;
        stroke-miterlimit: 10;
      }

      .cls-2 {
        fill: #fce9c0;
      }

      .cls-3 {
        fill: #e9e7c1;
      }

      .cls-4 {
        fill: #ad862e;
      }

      .cls-5 {
        fill: #674200;
      }

      .cls-6 {
        fill: #e5b422;
      }

      .cls-7 {
        fill: #724200;
      }
    </style>
  </defs>
  <g id="Layer_1-2" data-name="Layer 1">
    <path class="cls-6" d="M224.77,113.03c-6.22,10.6-17.53,12.94-29.29,33.33-5.43,9.41-7.14,16.05-9.09,21.21-9.41,24.92-39.36,55.12-73.74,57.58-37.2,2.66-64.05-28.28-80.23-46.92C18.85,162.6,1.28,142.34.52,113.03-.49,73.44,29.92,46,42.95,34.24,54.21,24.08,77.04,4.07,112.65.91c9.14-.81,47.25-3.01,78.79,24.24,26.73,23.1,46.51,65.42,33.33,87.88Z"/>
    <path class="cls-7" d="M54.57,113.79c1.9,10.09-10.96,21.48-16.67,19.44-4.49-1.6-5.9-11.99-3.03-19.44.54-1.39,3.77-9.77,9.85-9.85,4.88-.06,8.98,5.26,9.85,9.85Z"/>
    <ellipse class="cls-4" cx="111.13" cy="175.15" rx="10.61" ry="16.67"/>
    <ellipse class="cls-3" cx="90.68" cy="50.91" rx="20.45" ry="13.64"/>
    <ellipse class="cls-5" cx="103.05" cy="123.19" rx="18.69" ry="10.28"/>
    <ellipse class="cls-1" cx="153.05" cy="89.8" rx="18.18" ry="20.2"/>
    <circle class="cls-2" cx="166.18" cy="42.32" r="13.13"/>
  </g>
</svg>