<?xml version="1.0" encoding="UTF-8"?>
<svg id="Layer_2" xmlns="http://www.w3.org/2000/svg" viewBox="0 0 317.16 95.95">
  <defs>
    <style>
      .cls-1 {
        fill: #fff;
        stroke: #231f20;
        stroke-miterlimit: 10;
      }
    </style>
  </defs>
  <g id="Layer_1-2" data-name="Layer_1">
    <g>
      <path class="cls-1" d="M81.95,20.29C73.52,10.06,60.75,3.53,46.46,3.53,21.08,3.53.5,24.11.5,49.49s20.58,45.96,45.96,45.96c14.96,0,28.25-7.16,36.65-18.23-6.18-8.06-9.88-18.21-9.88-29.25,0-10.33,3.24-19.89,8.73-27.68Z"/>
      <path class="cls-1" d="M157.16,19.91C148.71,8.14,135.08.5,119.69.5s-29.3,7.81-37.74,19.79c6.54,7.94,10.46,18.11,10.46,29.2,0,10.42-3.47,20.02-9.31,27.73,8.51,11.09,21.73,18.23,36.59,18.23s29.02-7.64,37.47-19.41c-5.77-7.86-9.19-17.56-9.19-28.06s3.42-20.2,9.19-28.06Z"/>
      <path class="cls-1" d="M232.32,18.08C223.61,7.36,210.33.5,195.45.5c-15.72,0-29.65,7.64-38.29,19.41,5.65,7.86,8.99,17.56,8.99,28.06s-3.34,20.2-8.99,28.06c8.64,11.77,22.57,19.41,38.29,19.41,14.89,0,28.16-6.86,36.87-17.58-6.63-8.16-10.61-18.56-10.61-29.9s3.98-21.74,10.61-29.9Z"/>
      <path class="cls-1" d="M269.19.5c-14.89,0-28.16,6.86-36.87,17.58,6.63,8.16,10.61,18.56,10.61,29.9s-3.98,21.74-10.61,29.9c8.7,10.72,21.98,17.58,36.87,17.58,26.22,0,47.47-21.26,47.47-47.47S295.41.5,269.19.5Z"/>
    </g>
  </g>
</svg>